name D:\school\WTK\thesis\model\3dpredictsim\Results\batch_windlass\Pog_s1_tmt_bCst_d00_k800_WL30_ig24_act_TTC.mot
datacolumns 128
datarows 4
range 0.00000000 0.03741642
endheader
time	pelvis_tilt	pelvis_list	pelvis_rotation	pelvis_tx	pelvis_ty	pelvis_tz	hip_flexion_l	hip_adduction_l	hip_rotation_l	hip_flexion_r	hip_adduction_r	hip_rotation_r	knee_angle_l	knee_angle_r	ankle_angle_l	ankle_angle_r	subtalar_angle_l	subtalar_angle_r	tmt_angle_l	tmt_angle_r	mtp_angle_l	mtp_angle_r	lumbar_extension	lumbar_bending	lumbar_rotation	arm_flex_l	arm_add_l	arm_rot_l	arm_flex_r	arm_add_r	arm_rot_r	elbow_flex_l	elbow_flex_r	pro_sup_l	pro_sup_r	glut_med1_l/activation	glut_med2_l/activation	glut_med3_l/activation	glut_min1_l/activation	glut_min2_l/activation	glut_min3_l/activation	semimem_l/activation	semiten_l/activation	bifemlh_l/activation	bifemsh_l/activation	sar_l/activation	add_long_l/activation	add_brev_l/activation	add_mag1_l/activation	add_mag2_l/activation	add_mag3_l/activation	tfl_l/activation	pect_l/activation	grac_l/activation	glut_max1_l/activation	glut_max2_l/activation	glut_max3_l/activation	iliacus_l/activation	psoas_l/activation	quad_fem_l/activation	gem_l/activation	peri_l/activation	rect_fem_l/activation	vas_med_l/activation	vas_int_l/activation	vas_lat_l/activation	med_gas_l/activation	lat_gas_l/activation	soleus_l/activation	tib_post_l/activation	flex_dig_l/activation	flex_hal_l/activation	tib_ant_l/activation	per_brev_l/activation	per_long_l/activation	per_tert_l/activation	ext_dig_l/activation	ext_hal_l/activation	ercspn_l/activation	intobl_l/activation	extobl_l/activation	glut_med1_r/activation	glut_med2_r/activation	glut_med3_r/activation	glut_min1_r/activation	glut_min2_r/activation	glut_min3_r/activation	semimem_r/activation	semiten_r/activation	bifemlh_r/activation	bifemsh_r/activation	sar_r/activation	add_long_r/activation	add_brev_r/activation	add_mag1_r/activation	add_mag2_r/activation	add_mag3_r/activation	tfl_r/activation	pect_r/activation	grac_r/activation	glut_max1_r/activation	glut_max2_r/activation	glut_max3_r/activation	iliacus_r/activation	psoas_r/activation	quad_fem_r/activation	gem_r/activation	peri_r/activation	rect_fem_r/activation	vas_med_r/activation	vas_int_r/activation	vas_lat_r/activation	med_gas_r/activation	lat_gas_r/activation	soleus_r/activation	tib_post_r/activation	flex_dig_r/activation	flex_hal_r/activation	tib_ant_r/activation	per_brev_r/activation	per_long_r/activation	per_tert_r/activation	ext_dig_r/activation	ext_hal_r/activation	ercspn_r/activation	intobl_r/activation	extobl_r/activation	
          0.00000000	         -2.92508833	         -0.41242820	          9.44132955	          0.00000000	          0.85539920	         -0.00296605	        -17.36293291	         -2.76428849	          7.90672850	         33.43646756	         -1.63389633	         -3.74488419	        -15.82925443	        -19.50480671	        -11.61710076	          3.08752474	         18.08795266	          9.74629063	        -11.79099010	         -0.80171084	         37.26668750	          2.28650995	          0.91332612	         -2.14429611	         -3.26142166	          1.67558554	        -13.59053016	         15.82644839	        -15.87135467	        -13.69848086	         11.81984297	         46.57924861	         19.44012620	         86.51662706	         86.51662706	          0.16441541	          0.06039341	          0.05000011	          0.20057123	          0.12061261	          0.06189156	          0.06039276	          0.06039349	          0.06039405	          0.05000026	          0.07294768	          0.18151987	          0.11763124	          0.11395799	          0.06450562	          0.08588636	          0.15101632	          0.05000012	          0.05321948	          0.05000936	          0.06039252	          0.06039376	          0.26202939	          0.36297509	          0.06035183	          0.05000026	          0.05000002	          0.12854916	          0.07260954	          0.06400667	          0.05114944	          0.12930452	          0.18195990	          0.05000000	          0.12560307	          0.13943271	          0.14237987	          0.38096158	          0.50542946	          0.35418746	          0.71678183	          0.56886703	          0.23075386	          0.05000000	          0.05387471	          0.07668657	          0.05000097	          0.05000004	          0.05771534	          0.05000012	          0.05000009	          0.05000010	          0.07692352	          0.06039360	          0.09052957	          0.06039345	          0.05000004	          0.10642640	          0.11572465	          0.16883541	          0.13819221	          0.08547157	          0.06039359	          0.06039350	          0.08289979	          0.05000003	          0.08908337	          0.07273120	          0.06682810	          0.08654316	          0.21494779	          0.05338079	          0.09866071	          0.05000000	          0.12629790	          0.12848782	          0.11432047	          0.06039345	          0.06039345	          0.06039344	          0.06039344	          0.06039350	          0.06039346	          0.54234559	          0.23619206	          0.15478543	          0.05000002	          0.56826523	          0.05000000	          0.05000000	          0.11467515	          0.10642638	
          0.01247214	         -2.91097005	         -0.37235793	          9.49722365	          0.02041082	          0.85365114	         -0.00255769	        -17.16315936	         -2.92212446	          7.64969858	         32.81674022	         -1.31326555	         -3.57562942	        -17.86960623	        -19.78568727	        -14.02669259	          2.58180967	         18.35006527	          9.38722379	        -11.52018078	         -0.89722492	         35.80483639	          2.60533060	          1.13737940	         -1.87565853	         -3.35919186	          1.18773918	        -13.67635589	         16.11344516	        -17.31594031	        -13.70126721	         12.00707260	         47.68658547	         19.29571591	         86.51662706	         86.51662706	          0.13612024	          0.05000002	          0.06267208	          0.16605381	          0.09985571	          0.06039365	          0.05000026	          0.05000005	          0.05000052	          0.05000001	          0.06039374	          0.19831822	          0.25826796	          0.26376887	          0.11735937	          0.11334856	          0.12502708	          0.07371005	          0.05000025	          0.05000011	          0.05000008	          0.05000031	          0.21693527	          0.30050868	          0.05000006	          0.07294716	          0.06039361	          0.10642641	          0.08028519	          0.08811081	          0.07294752	          0.10705178	          0.15064540	          0.05000009	          0.10398733	          0.11543696	          0.11787692	          0.47072896	          0.45039798	          0.31982736	          0.59342680	          0.70424084	          0.19104213	          0.06418998	          0.06039348	          0.07294735	          0.05000000	          0.05000003	          0.12256133	          0.05000000	          0.05000001	          0.05000010	          0.06368532	          0.05000013	          0.07494982	          0.05000002	          0.05000049	          0.08811088	          0.09580894	          0.25494510	          0.20708162	          0.09622212	          0.05000014	          0.05000011	          0.06863311	          0.06039344	          0.11008274	          0.08070992	          0.05532728	          0.07294734	          0.39758213	          0.07086022	          0.09623328	          0.07294738	          0.26249314	          0.25120496	          0.22112582	          0.05000000	          0.05000000	          0.05000000	          0.05000000	          0.05000005	          0.05000001	          0.71510308	          0.22797396	          0.13305868	          0.48129271	          0.66745187	          0.41156651	          0.05000000	          0.09494006	          0.08811086	
          0.02494428	         -2.88854291	         -0.35246125	          9.50667451	          0.04082938	          0.85131224	         -0.00215703	        -16.75071785	         -3.05649624	          7.42146026	         32.05865903	         -0.99923506	         -3.32644450	        -20.43860233	        -20.69752590	        -15.80918874	          2.38464849	         18.57076103	          8.96621816	        -10.54172480	         -1.09762233	         32.22917000	          2.70927919	          1.35228173	         -1.57007641	         -3.43383883	          0.66320582	        -13.77346924	         16.32623312	        -18.66543705	        -13.72499352	         12.34819037	         48.79527531	         19.00247107	         86.51662706	         86.51662706	          0.26656726	          0.05360498	          0.05188650	          0.13747669	          0.08267099	          0.05000020	          0.05532669	          0.05000002	          0.05000004	          0.05000000	          0.05000029	          0.16418852	          0.27201719	          0.21837542	          0.09716286	          0.09384397	          0.10351047	          0.06102718	          0.05000032	          0.06038967	          0.06039331	          0.06039347	          0.17960166	          0.24939468	          0.06039343	          0.06039330	          0.05000013	          0.08811089	          0.06646846	          0.07294733	          0.06039357	          0.08862863	          0.12471998	          0.05000000	          0.08609156	          0.09557077	          0.09759082	          0.44381769	          0.39977303	          0.29227990	          0.53948713	          0.83851322	          0.52256459	          0.10821869	          0.05000003	          0.06039343	          0.23663178	          0.40229914	          0.52091174	          0.31671889	          0.11871176	          0.48129272	          0.07294735	          0.05000001	          0.07919187	          0.05000003	          0.05130336	          0.07294741	          0.13275494	          0.21107016	          0.17144379	          0.13107369	          0.05000001	          0.07294506	          0.07874566	          0.05000000	          0.21332510	          0.06682010	          0.06039344	          0.06039343	          0.32915998	          0.18754849	          0.39853302	          0.06039345	          0.30168553	          0.29923644	          0.26454143	          0.05158889	          0.05133878	          0.06039343	          0.05422970	          0.05000001	          0.05000003	          0.69331406	          0.18874063	          0.11015986	          0.39846433	          0.59467521	          0.38509154	          0.06377280	          0.07860129	          0.07294737	
          0.03741642	         -2.86276540	         -0.35135800	          9.46816253	          0.06089865	          0.84887680	         -0.00174092	        -16.09976092	         -3.17116707	          7.20939711	         31.23857471	         -0.66669982	         -3.03496147	        -23.44662418	        -21.65924961	        -17.15693719	          2.32568512	         18.72551213	          8.47216765	         -8.97251949	         -1.04576222	         26.73621464	          2.71566265	          1.53926746	         -1.23502611	         -3.49094041	          0.18524443	        -13.85829660	         16.51203256	        -19.83165833	        -13.74702183	         12.80040934	         49.76371022	         18.51685826	         86.51662706	         86.51662706	          0.22069219	          0.05000000	          0.05000000	          0.11381762	          0.06844369	          0.05000001	          0.08084510	          0.07122082	          0.10285652	          0.05000001	          0.05000007	          0.18899168	          0.22520441	          0.23533448	          0.08811084	          0.08810974	          0.08569677	          0.05052508	          0.05000017	          0.05000009	          0.05000008	          0.05000008	          0.14869300	          0.24627167	          0.05000000	          0.05000002	          0.05000000	          0.07294739	          0.05502953	          0.06039342	          0.05000010	          0.07337603	          0.10325621	          0.05274025	          0.07127558	          0.07912346	          0.08079587	          0.55500289	          0.33871547	          0.24533911	          0.52668193	          0.69420877	          0.43263350	          0.17139297	          0.05000000	          0.05000000	          0.38520428	          0.55114696	          0.59415448	          0.27481551	          0.51880973	          0.43607714	          0.06039343	          0.06669277	          0.06556329	          0.06039344	          0.05000003	          0.06039348	          0.10990840	          0.17474591	          0.14193914	          0.14356214	          0.05000003	          0.06039155	          0.06519389	          0.32581639	          0.26787306	          0.17280682	          0.05000000	          0.05000000	          0.27251298	          0.15527222	          0.32994723	          0.05000000	          0.47694321	          0.45892740	          0.39857502	          0.05000000	          0.05000000	          0.05000000	          0.16706361	          0.17184242	          0.08355991	          0.78676389	          0.15625919	          0.09120183	          0.32989036	          0.56418977	          0.39359911	          0.06919225	          0.06507435	          0.06039344	
